<?xml version="1.0" standalone="no"?>
<!DOCTYPE svg PUBLIC "-//W3C//DTD SVG 20010904//EN"
 "http://www.w3.org/TR/2001/REC-SVG-20010904/DTD/svg10.dtd">
<svg version="1.0" xmlns="http://www.w3.org/2000/svg"
 width="626.000000pt" height="626.000000pt" viewBox="0 0 626.000000 626.000000"
 preserveAspectRatio="xMidYMid meet">

<g transform="translate(0.000000,626.000000) scale(0.100000,-0.100000)"
fill="#000000" stroke="none">
<path d="M0 3130 l0 -3130 3130 0 3130 0 0 3130 0 3130 -3130 0 -3130 0 0
-3130z m5148 2154 c14 -10 22 -25 22 -45 l0 -29 -375 0 -375 0 0 29 c0 60 9
61 375 61 283 0 334 -2 353 -16z m-3486 -21 c10 -9 18 -24 18 -35 0 -17 -17
-18 -380 -18 -405 0 -399 -1 -364 48 l15 22 346 0 c308 0 348 -2 365 -17z
m3448 -148 c0 -37 6 -45 70 -103 53 -48 78 -80 108 -141 57 -113 64 -171 60
-492 -3 -299 -2 -295 -66 -361 l-36 -38 46 0 c51 0 66 -6 281 -109 l148 -71
-3 -57 -3 -58 -220 -2 c-121 -1 -238 -2 -261 -3 l-41 0 -44 -82 -44 -83 -67
-3 -67 -3 -40 73 c-22 40 -44 79 -48 87 -7 11 -288 13 -1723 12 -943 0 -1731
-1 -1750 -1 -34 0 -37 -3 -78 -85 l-44 -85 -68 0 -68 0 -42 83 c-24 45 -44 84
-46 85 -1 2 -120 3 -263 3 l-261 -1 0 60 0 61 161 77 161 78 -34 26 c-20 15
-45 47 -57 72 -20 44 -21 60 -21 343 0 311 4 347 47 443 27 60 95 145 143 178
36 25 39 31 40 75 0 40 3 47 20 47 18 0 20 -7 20 -58 0 -53 -3 -60 -26 -73
-40 -21 -128 -121 -153 -173 -48 -103 -52 -145 -49 -459 l3 -294 28 -36 c49
-65 62 -67 413 -67 l314 0 -9 23 c-15 38 -62 133 -56 114 3 -11 1 -16 -6 -11
-6 3 -9 15 -6 25 5 20 -22 124 -30 115 -3 -3 -2 -18 3 -33 10 -37 12 -113 2
-113 -4 0 -7 23 -6 51 0 28 -4 55 -11 62 -16 16 -13 47 5 47 8 0 13 4 10 8 -3
5 -6 27 -7 50 -2 22 -7 39 -11 36 -5 -3 -5 -10 -2 -16 4 -6 -1 -8 -14 -4 -26
8 -62 -9 -62 -29 0 -8 -4 -15 -10 -15 -5 0 -10 7 -10 15 0 10 -11 15 -35 15
-32 0 -35 -2 -35 -30 0 -44 -21 -172 -31 -192 -5 -10 -9 -27 -9 -37 0 -34 -19
-34 -55 2 l-35 35 -1 136 c-1 75 -2 139 -3 144 -1 4 -16 27 -34 51 -17 24 -32
48 -32 54 0 5 -7 4 -15 -3 -8 -7 -24 -10 -36 -7 -21 6 -21 3 -16 -66 3 -42 2
-57 -2 -37 -9 40 -9 40 -46 -90 -34 -119 -55 -179 -67 -186 -12 -7 -34 49 -54
137 -13 57 -15 103 -12 201 3 71 10 134 16 141 5 6 13 28 17 47 10 44 26 68
60 86 31 16 69 19 60 4 -3 -5 0 -10 7 -10 9 0 14 23 16 83 4 117 44 237 80
237 13 0 18 -24 21 -95 1 -33 7 -80 12 -104 7 -32 6 -47 -3 -60 -12 -14 -11
-15 5 -2 9 7 17 19 17 26 0 7 8 19 17 26 11 10 14 10 9 2 -12 -21 8 -15 34 10
14 12 26 21 27 20 2 -2 9 -3 16 -3 8 0 11 15 9 50 -5 69 3 95 40 130 31 30 81
41 77 18 -2 -7 3 -46 10 -86 7 -40 11 -82 8 -93 -5 -20 17 -28 28 -10 3 6 14
9 25 8 13 -1 16 -5 10 -11 -16 -16 -12 -25 10 -19 12 3 20 0 20 -6 0 -7 -4 -9
-10 -6 -5 3 -10 4 -10 1 0 -3 4 -7 9 -10 5 -3 23 19 40 49 19 33 36 52 44 49
20 -7 67 -86 67 -112 0 -17 4 -23 15 -18 10 4 15 -1 15 -14 0 -11 5 -20 10
-20 6 0 10 10 10 23 0 17 2 19 9 7 6 -8 7 -18 5 -22 -3 -4 27 -8 65 -8 39 0
71 2 71 5 0 2 -11 30 -25 61 -35 78 -85 143 -144 184 l-50 35 -1 58 c0 50 2
57 20 57 17 0 20 -7 20 -43 0 -39 4 -46 59 -94 68 -61 113 -125 142 -204 l21
-56 146 -7 c80 -4 165 -11 187 -15 52 -10 65 -5 65 24 0 16 -7 25 -21 27 -31
4 -46 32 -30 52 8 9 22 16 32 16 11 0 19 7 19 15 0 13 29 15 200 15 171 0 200
-2 200 -15 0 -8 9 -15 20 -15 10 0 23 -8 29 -17 12 -23 -4 -53 -29 -53 -36 0
-25 -43 16 -65 125 -67 224 -244 224 -400 l0 -45 235 0 235 0 0 53 c0 68 23
157 58 221 32 59 128 158 171 176 25 10 31 19 31 41 0 24 -4 29 -24 29 -13 0
-26 6 -29 13 -7 22 4 37 29 37 25 0 35 29 12 31 -7 1 -17 2 -23 4 -5 1 -13 3
-18 3 -4 1 -1 15 7 31 25 47 54 53 264 49 176 -3 193 -5 211 -23 32 -32 31
-59 -1 -63 -35 -4 -38 -32 -4 -32 30 0 43 -30 21 -47 -10 -6 -23 -9 -31 -6
-10 4 -14 -3 -14 -20 0 -20 14 -35 62 -69 69 -48 80 -65 46 -70 -22 -4 -22 -5
-4 -13 13 -6 21 -5 24 3 2 7 21 12 41 12 l38 0 7 64 c14 135 67 239 172 335
58 52 64 62 64 97 l0 39 315 0 315 0 0 -40z m-3936 -136 c-3 -5 -10 -7 -15 -3
-5 3 -7 10 -3 15 3 5 10 7 15 3 5 -3 7 -10 3 -15z m226 -10 c0 -11 -4 -17 -10
-14 -5 3 -10 13 -10 21 0 8 5 14 10 14 6 0 10 -9 10 -21z m42 -42 c-4 -15 -7
-16 -13 -5 -11 16 -12 52 -2 62 10 10 21 -33 15 -57z m-312 33 c0 -5 -2 -10
-4 -10 -3 0 -8 5 -11 10 -3 6 -1 10 4 10 6 0 11 -4 11 -10z m50 -29 c0 -6 -4
-13 -10 -16 -5 -3 -10 1 -10 9 0 9 5 16 10 16 6 0 10 -4 10 -9z m433 -18 c-7
-2 -21 -2 -30 0 -10 3 -4 5 12 5 17 0 24 -2 18 -5z m62 -3 c3 -5 -1 -10 -9
-10 -9 0 -16 5 -16 10 0 6 4 10 9 10 6 0 13 -4 16 -10z m-515 -45 c-6 -15 -13
-25 -16 -23 -2 3 1 17 7 32 16 34 23 27 9 -9z m-43 -27 c-3 -7 -5 -2 -5 12 0
14 2 19 5 13 2 -7 2 -19 0 -25z m510 -40 c-3 -8 -6 -5 -6 6 -1 11 2 17 5 13 3
-3 4 -12 1 -19z m-594 -344 c3 -3 3 -13 0 -21 -5 -12 -7 -12 -14 -1 -15 23 -4
40 14 22z m-6 -86 c-3 -8 -6 -5 -6 6 -1 11 2 17 5 13 3 -3 4 -12 1 -19z m33
-24 c0 -8 -4 -12 -10 -9 -5 3 -10 10 -10 16 0 5 5 9 10 9 6 0 10 -7 10 -16z
m-40 -79 c0 -19 -4 -35 -10 -35 -5 0 -10 16 -10 35 0 19 5 35 10 35 6 0 10
-16 10 -35z m37 -47 c-3 -7 -5 -2 -5 12 0 14 2 19 5 13 2 -7 2 -19 0 -25z
m233 -9 c0 -5 -4 -9 -10 -9 -5 0 -10 7 -10 16 0 8 5 12 10 9 6 -3 10 -10 10
-16z m114 -33 c5 -33 4 -46 -3 -41 -6 3 -11 27 -11 52 0 57 5 53 14 -11z
m-414 3 c0 -21 -16 -26 -23 -6 -6 17 3 38 14 31 5 -3 9 -14 9 -25z m60 -39 c0
-16 -4 -30 -10 -30 -5 0 -10 14 -10 30 0 17 5 30 10 30 6 0 10 -13 10 -30z
m-67 -50 c-7 -27 -21 -25 -18 3 3 29 3 29 14 23 5 -3 7 -15 4 -26z m627 -994
c0 -8 10 -16 23 -18 31 -4 37 -47 7 -55 -18 -5 -21 -11 -16 -37 11 -58 75
-171 137 -241 81 -94 99 -132 99 -222 l0 -73 193 0 c105 0 197 4 204 8 6 4 17
30 24 57 23 99 68 176 145 253 67 66 74 76 74 112 0 38 -2 40 -30 40 -30 0
-30 1 -30 55 0 42 5 60 20 75 19 19 33 20 364 20 l345 0 20 -26 c15 -20 19
-37 17 -72 -4 -44 -6 -47 -35 -50 -29 -3 -31 -6 -31 -46 0 -39 4 -45 44 -74
l43 -31 234 -5 c245 -5 369 -14 369 -26 0 -18 -45 -24 -215 -29 -99 -3 -185
-9 -191 -13 -6 -4 -9 -25 -7 -47 3 -40 2 -41 -30 -42 -17 -1 -36 -1 -40 0 -5
1 -7 -4 -4 -11 3 -10 52 -13 220 -11 l217 2 0 -23 c0 -13 8 -30 17 -37 21 -18
73 -89 73 -101 0 -4 -9 -8 -21 -8 -25 0 -118 97 -119 124 0 17 -6 18 -82 13
-46 -4 -129 -10 -185 -13 -57 -4 -103 -10 -103 -15 0 -4 5 -20 11 -36 6 -15
12 -48 12 -73 l2 -45 75 -11 c41 -6 87 -14 101 -18 l27 -8 -11 42 c-13 46 -5
66 35 89 34 20 74 7 93 -29 14 -27 14 -30 0 -30 -11 0 -15 -12 -15 -49 0 -44
2 -49 19 -46 11 2 84 -1 163 -7 103 -7 183 -7 287 1 80 6 146 12 147 14 1 1 3
22 5 47 2 32 -1 44 -10 42 -7 -1 -10 2 -6 7 3 6 13 7 23 4 9 -3 14 -2 9 2 -4
5 7 25 25 44 27 28 22 26 -24 -12 -51 -42 -98 -61 -98 -38 0 12 89 93 133 120
23 14 37 30 35 39 -2 9 -5 14 -8 12 -3 -2 -15 2 -27 9 -38 20 -24 71 19 71 10
0 18 5 18 10 0 6 72 10 195 10 123 0 195 -4 195 -10 0 -5 8 -10 18 -10 39 0
57 -51 25 -69 -10 -5 -22 -8 -28 -8 -5 1 -11 -7 -13 -19 -2 -16 5 -25 30 -35
44 -18 147 -123 178 -181 l25 -48 226 0 c188 0 229 -3 239 -15 16 -19 6 -45
-20 -52 -19 -5 -20 -14 -20 -247 l1 -241 132 -61 132 -60 3 -62 3 -62 -264 0
-264 0 -44 -85 -44 -85 -69 2 -69 3 -44 83 -45 82 -1751 -2 -1752 -3 -44 -82
-44 -83 -68 0 -67 0 -44 85 -43 85 -262 0 -263 0 0 61 0 60 99 47 c90 43 99
49 94 70 -4 17 -1 25 13 28 17 5 19 17 19 149 0 131 -2 144 -18 149 -12 3 -17
12 -15 23 3 15 15 18 86 21 l82 3 0 227 c0 125 5 243 10 262 5 19 44 78 87
130 71 89 123 180 138 242 5 20 2 29 -14 38 -29 15 -27 48 4 56 14 3 25 12 25
20 0 12 40 14 230 14 193 0 230 -2 230 -14z m1787 -608 c-3 -8 -6 -5 -6 6 -1
11 2 17 5 13 3 -3 4 -12 1 -19z m101 3 c3 -8 -1 -12 -9 -9 -7 2 -15 10 -17 17
-3 8 1 12 9 9 7 -2 15 -10 17 -17z m-38 -33 c0 -10 -4 -18 -10 -18 -5 0 -10
15 -10 33 0 24 3 28 10 17 5 -8 10 -23 10 -32z m-35 22 c3 -5 1 -10 -4 -10 -6
0 -11 5 -11 10 0 6 2 10 4 10 3 0 8 -4 11 -10z"/>
<path d="M4482 4918 c-14 -14 -16 -28 -3 -28 9 0 24 30 18 36 -2 2 -9 -2 -15
-8z"/>
<path d="M4507 4900 c-3 -11 -1 -23 4 -26 5 -3 9 6 9 20 0 31 -6 34 -13 6z"/>
<path d="M1265 4890 c-3 -5 -1 -10 4 -10 6 0 11 5 11 10 0 6 -2 10 -4 10 -3 0
-8 -4 -11 -10z"/>
<path d="M2280 4775 c0 -63 3 -78 21 -94 11 -11 33 -31 48 -45 23 -22 38 -26
87 -28 70 -2 104 16 129 69 19 39 14 104 -9 135 -17 23 -68 33 -94 19 -15 -8
-23 -7 -32 4 -9 11 -33 15 -81 15 l-69 0 0 -75z"/>
<path d="M3670 4778 l0 -73 -41 -23 c-132 -76 -219 -219 -219 -362 l0 -60 88
0 c48 0 93 -4 101 -9 17 -11 7 -41 -13 -41 -12 0 -14 -19 -10 -117 l4 -118
218 -5 c184 -4 217 -7 217 -20 0 -13 45 -15 333 -18 l332 -2 2 32 c1 18 2 63
3 101 l1 67 -48 0 c-33 0 -48 -4 -48 -13 0 -19 -65 -92 -103 -116 -115 -71
-281 -31 -354 85 -27 42 -30 44 -75 44 l-48 0 0 105 0 105 55 0 c30 0 55 4 55
10 0 5 17 29 38 52 111 123 304 116 402 -15 32 -43 38 -47 77 -47 l43 0 -1
118 c0 64 -3 111 -6 105 -4 -10 -83 -13 -348 -13 -300 0 -344 2 -356 16 -25
30 1 49 77 54 l69 5 -62 40 -62 40 -1 73 0 72 -160 0 -160 0 0 -72z m244 -30
c-14 -108 -56 -157 -70 -83 -3 20 -4 39 0 42 3 4 6 -3 6 -15 0 -26 10 -52 20
-52 14 0 30 60 23 90 -6 34 -17 38 -32 13 -8 -15 -10 -11 -11 20 0 36 1 37 35
37 l36 0 -7 -52z m-323 -225 c18 -21 22 -28 8 -15 -26 22 -59 30 -59 12 0 -5
12 -21 27 -35 40 -36 21 -31 -22 6 -34 30 -35 33 -19 50 23 25 25 25 65 -18z
m363 -49 c4 -10 -1 -22 -10 -29 -15 -11 -13 -16 25 -54 23 -23 34 -38 24 -33
-17 10 -54 48 -82 85 -12 15 -11 20 5 32 25 19 31 18 38 -1z m-329 -13 c-3 -6
-11 -11 -16 -11 -5 0 -4 6 3 14 14 16 24 13 13 -3z m-15 -86 c0 -8 -2 -15 -4
-15 -2 0 -6 7 -10 15 -3 8 -1 15 4 15 6 0 10 -7 10 -15z m110 -41 c0 -3 -5
-14 -10 -25 -10 -17 -13 -18 -39 -5 -15 8 -33 22 -40 30 -12 14 -10 14 18 0
36 -18 59 -10 39 14 -12 14 -10 14 10 3 12 -6 22 -14 22 -17z m125 -221 c46
-50 45 -61 0 -15 -27 26 -39 32 -47 24 -9 -9 -5 -20 18 -43 30 -33 15 -31 -23
4 -18 16 -20 23 -11 43 15 32 23 30 63 -13z"/>
<path d="M1600 4750 c0 -5 5 -10 11 -10 5 0 7 5 4 10 -3 6 -8 10 -11 10 -2 0
-4 -4 -4 -10z"/>
<path d="M1510 4669 c0 -31 4 -38 25 -43 45 -11 320 -25 328 -17 5 5 47 7 95
6 77 -2 80 -2 27 4 -58 7 -59 8 -15 10 25 1 62 4 84 7 24 4 41 2 46 -5 4 -8
19 -9 46 -3 29 6 40 13 42 30 3 16 -1 20 -12 16 -8 -3 -21 -2 -28 2 -7 5 -121
10 -253 11 -132 2 -273 6 -312 11 l-73 8 0 -37z m627 5 c-3 -3 -12 -4 -19 -1
-8 3 -5 6 6 6 11 1 17 -2 13 -5z m-119 -11 c-10 -2 -26 -2 -35 0 -10 3 -2 5
17 5 19 0 27 -2 18 -5z m-123 -9 c13 -5 14 -8 3 -15 -19 -13 -28 -11 -28 6 0
17 2 18 25 9z m280 -4 c-3 -5 -14 -10 -23 -10 -15 0 -15 2 -2 10 20 13 33 13
25 0z"/>
<path d="M2260 4690 c-13 -8 -12 -10 3 -10 9 0 17 5 17 10 0 12 -1 12 -20 0z"/>
<path d="M2572 4641 c-19 -10 -38 -24 -43 -32 -13 -21 -11 -60 5 -91 13 -24
12 -28 -10 -47 -37 -32 -41 -68 -13 -120 13 -24 34 -51 46 -59 21 -13 23 -12
29 15 18 69 109 142 157 124 13 -5 27 -17 30 -25 4 -9 13 -16 22 -16 46 0 -10
153 -60 166 -14 3 -25 13 -25 22 0 8 -11 30 -26 49 -29 38 -58 41 -112 14z m8
-281 c0 -5 -5 -10 -11 -10 -5 0 -7 5 -4 10 3 6 8 10 11 10 2 0 4 -4 4 -10z"/>
<path d="M4325 4610 c4 -6 11 -8 16 -5 14 9 11 15 -7 15 -8 0 -12 -5 -9 -10z"/>
<path d="M4365 4610 c-7 -11 9 -11 45 0 24 8 24 8 -7 9 -17 1 -35 -3 -38 -9z"/>
<path d="M4568 4613 c6 -2 18 -2 25 0 6 3 1 5 -13 5 -14 0 -19 -2 -12 -5z"/>
<path d="M3991 4601 c-8 -5 5 -7 35 -4 27 3 51 7 53 9 9 8 -75 3 -88 -5z"/>
<path d="M1600 4546 c0 -4 -20 -30 -44 -57 -85 -95 -82 -204 11 -422 56 -130
59 -133 194 -149 97 -12 262 0 313 23 19 9 36 37 70 118 83 196 95 289 50 380
-15 28 -37 59 -50 68 -13 8 -24 23 -24 32 0 14 -26 16 -260 16 -143 0 -260 -4
-260 -9z"/>
<path d="M4850 4420 c-8 -5 -11 -12 -7 -16 3 -4 14 -1 23 7 16 13 17 12 12 -8
-4 -13 -2 -26 4 -29 5 -4 8 5 6 22 -3 30 -16 38 -38 24z"/>
<path d="M2271 4363 c0 -13 3 -23 8 -23 18 0 33 -60 27 -104 -7 -44 -57 -126
-77 -126 -13 0 -41 -68 -33 -81 3 -6 17 -8 30 -5 15 4 24 2 24 -5 0 -7 -13
-10 -35 -7 -31 3 -45 -5 -45 -28 0 -7 257 -4 302 3 36 5 72 30 80 54 2 7 16
-1 35 -20 55 -54 132 -35 154 39 10 33 9 43 -7 71 -28 47 -64 56 -126 30 -45
-19 -51 -19 -66 -5 -11 11 -27 15 -52 11 -29 -4 -39 0 -49 15 -10 16 -8 23 9
45 11 14 20 37 20 50 0 30 -40 104 -51 97 -5 -2 -37 -8 -73 -13 -55 -6 -66 -5
-69 8 -3 10 -5 7 -6 -6z"/>
<path d="M910 4345 c0 -8 5 -15 10 -15 6 0 10 7 10 15 0 8 -4 15 -10 15 -5 0
-10 -7 -10 -15z"/>
<path d="M4490 4281 c0 -31 -75 -100 -145 -135 -59 -29 -85 -32 -103 -14 -7 7
-12 9 -12 5 0 -15 66 -47 95 -47 36 0 117 45 163 91 29 29 33 38 28 68 -7 42
-26 66 -26 32z"/>
<path d="M4976 4275 c-13 -20 -14 -25 -3 -25 8 0 19 11 25 25 6 14 8 25 3 25
-5 0 -16 -11 -25 -25z"/>
<path d="M5025 4269 c-4 -18 -3 -35 4 -42 8 -8 11 0 11 31 0 50 -6 54 -15 11z"/>
<path d="M4248 4240 c-47 -25 -54 -38 -32 -55 16 -11 23 -11 46 3 15 8 25 19
22 24 -3 5 -2 7 3 6 17 -4 54 14 50 25 -6 20 -50 18 -89 -3z"/>
<path d="M2884 4193 c-28 -87 -53 -132 -102 -185 l-26 -28 72 0 72 0 0 115 c0
110 -4 135 -16 98z"/>
<path d="M3967 3913 c-10 -9 -9 -41 2 -47 4 -3 6 6 3 21 -3 18 -1 24 7 19 6
-4 11 -2 11 3 0 12 -13 14 -23 4z"/>
<path d="M4727 3899 c4 -13 8 -18 11 -10 2 7 -1 18 -6 23 -8 8 -9 4 -5 -13z"/>
<path d="M4370 3870 l-295 -5 328 -3 c217 -1 326 1 322 8 -3 6 -18 9 -33 8
-15 -2 -160 -5 -322 -8z"/>
<path d="M3998 3863 c7 -3 16 -2 19 1 4 3 -2 6 -13 5 -11 0 -14 -3 -6 -6z"/>
<path d="M1295 2897 c-45 -33 24 -110 94 -105 49 4 62 30 31 64 -23 24 -77 54
-98 54 -4 0 -16 -6 -27 -13z"/>
<path d="M1143 2723 c-7 -2 -13 -9 -13 -14 0 -5 -9 -18 -21 -30 -11 -11 -17
-24 -13 -27 3 -4 9 -1 11 6 4 10 8 8 18 -5 9 -13 10 -22 3 -30 -8 -10 -6 -13
6 -13 9 0 16 -4 16 -10 0 -5 -8 -10 -17 -10 -9 0 -13 -3 -10 -7 9 -9 78 29 74
41 -2 5 5 18 15 28 46 46 -5 98 -69 71z m10 -31 c-3 -12 -9 -22 -14 -22 -12 0
-11 7 2 32 13 25 20 19 12 -10z m67 8 c0 -5 -8 -10 -17 -10 -15 0 -16 2 -3 10
19 12 20 12 20 0z m-40 -80 c0 -5 -4 -10 -10 -10 -5 0 -10 5 -10 10 0 6 5 10
10 10 6 0 10 -4 10 -10z"/>
<path d="M3140 2673 c0 -13 29 -38 35 -31 3 3 -4 13 -15 23 -11 10 -20 13 -20
8z"/>
<path d="M4442 2599 c2 -42 1 -76 -2 -74 -3 2 -16 -3 -30 -11 l-25 -14 26 6
c31 7 84 -17 98 -45 14 -26 111 -37 150 -16 50 25 71 62 71 120 0 43 -5 57
-26 79 -27 26 -94 38 -94 16 0 -5 -10 -10 -22 -9 -13 0 -17 3 -10 6 30 12 6
19 -64 19 l-75 0 3 -77z"/>
<path d="M3120 2646 c0 -22 3 -27 11 -19 8 8 8 16 0 30 -9 16 -10 14 -11 -11z"/>
<path d="M2600 2615 c-19 -20 -20 -25 -7 -25 9 0 21 9 27 21 17 31 7 33 -20 4z"/>
<path d="M1091 2614 c0 -11 3 -14 6 -6 3 7 2 16 -1 19 -3 4 -6 -2 -5 -13z"/>
<path d="M2647 2601 c-4 -19 -5 -36 -2 -39 10 -11 16 7 13 40 l-3 33 -8 -34z"/>
<path d="M987 2573 c-23 -26 -22 -39 8 -68 41 -42 105 -29 105 20 0 48 -81 82
-113 48z"/>
<path d="M1250 2486 c-19 -24 13 -64 75 -95 59 -28 100 -21 100 18 0 57 -140
118 -175 77z"/>
<path d="M4750 2480 c-8 -5 -23 -11 -32 -14 -9 -3 -24 -16 -33 -30 -14 -21
-14 -30 -4 -65 7 -23 17 -41 23 -41 6 0 -4 -12 -21 -26 -45 -35 -46 -87 -3
-150 37 -52 56 -56 65 -12 5 19 27 51 56 79 27 26 49 54 49 61 0 8 9 21 20 31
11 9 20 12 20 7 0 -6 14 -10 30 -10 17 0 30 4 30 9 0 15 -40 60 -59 66 -10 3
-25 20 -32 38 -24 62 -64 83 -109 57z"/>
<path d="M1585 2460 c-28 -11 -84 -77 -91 -107 -8 -31 8 -47 38 -39 44 12 54
23 40 46 -7 11 -10 26 -6 32 5 8 2 9 -9 5 -19 -7 -21 1 -8 22 7 10 12 8 24 -9
9 -12 13 -29 10 -36 -3 -9 2 -14 12 -14 11 0 15 5 11 16 -3 8 -2 13 3 10 12
-8 35 50 27 69 -6 16 -20 18 -51 5z m30 -50 c3 -6 -1 -7 -9 -4 -18 7 -21 14
-7 14 6 0 13 -4 16 -10z m-71 -70 c-10 -4 -21 -6 -24 -3 -8 7 24 22 34 16 5
-4 1 -10 -10 -13z"/>
<path d="M2513 2444 c11 -4 16 -12 13 -20 -3 -8 -1 -14 5 -14 19 0 4 35 -16
37 -17 2 -17 1 -2 -3z"/>
<path d="M1963 2433 c53 -2 141 -2 195 0 53 1 9 3 -98 3 -107 0 -151 -2 -97
-3z"/>
<path d="M1060 2411 c0 -10 11 -28 25 -41 14 -13 25 -19 25 -14 0 5 4 3 8 -4
5 -7 23 -16 40 -22 18 -5 30 -5 27 0 -2 4 2 13 10 20 13 11 14 10 9 -4 -4 -10
-1 -16 9 -16 26 0 29 32 5 59 -13 14 -24 27 -24 29 -1 2 -32 5 -68 7 -57 2
-66 0 -66 -14z m58 -22 c-2 -6 -8 -10 -13 -10 -5 0 -11 4 -13 10 -2 6 4 11 13
11 9 0 15 -5 13 -11z"/>
<path d="M1820 2275 l0 -105 49 0 c40 0 51 4 56 20 11 34 101 106 149 120 109
30 227 -9 291 -97 27 -37 34 -42 73 -42 l42 -1 0 105 0 105 -330 0 -330 0 0
-105z"/>
<path d="M3770 2249 c0 -8 -12 -26 -26 -38 -14 -12 -35 -43 -46 -68 -32 -72
-14 -171 64 -344 28 -63 34 -70 72 -81 55 -17 290 -16 337 0 32 11 41 22 68
82 53 120 74 192 75 260 0 72 -13 105 -63 158 -18 18 -30 36 -27 40 2 4 -99 7
-225 7 -201 0 -229 -2 -229 -16z"/>
<path d="M4378 2199 c18 -21 47 -25 58 -8 5 8 -1 10 -19 7 -16 -3 -24 -1 -21
6 3 7 -4 12 -15 13 -18 2 -19 0 -3 -18z"/>
<path d="M2740 2202 c0 -5 7 -15 15 -22 8 -7 15 -8 15 -2 0 5 -7 15 -15 22 -8
7 -15 8 -15 2z"/>
<path d="M1160 2185 l-25 -15 29 2 c16 2 31 -2 33 -9 3 -9 -8 -13 -37 -13 -52
0 -45 -15 8 -18 36 -2 40 0 45 25 3 16 0 31 -6 35 -16 10 -18 10 -47 -7z"/>
<path d="M4500 2193 c-50 -5 -64 -18 -48 -47 16 -30 11 -101 -11 -145 -23 -45
-32 -52 -75 -60 -26 -6 -32 -13 -44 -56 -14 -47 -13 -50 8 -67 13 -10 25 -16
29 -13 3 3 -1 10 -9 15 -13 8 -12 10 3 10 9 0 17 -5 17 -11 0 -7 46 -9 144 -7
141 3 145 4 173 30 l28 27 28 -25 c43 -37 91 -33 134 12 29 31 39 36 68 32 19
-2 35 -1 35 3 0 5 -19 9 -42 11 -41 3 -43 5 -48 38 -4 28 -13 39 -41 54 -36
20 -36 20 -83 -2 -44 -21 -48 -21 -71 -6 -16 11 -36 14 -54 11 -46 -10 -58 13
-33 64 15 29 18 48 12 68 -13 45 -33 71 -55 69 -11 -1 -40 -3 -65 -5z m44
-319 c3 -8 2 -12 -4 -9 -6 3 -10 10 -10 16 0 14 7 11 14 -7z m-39 -35 c-3 -4
2 -10 10 -12 11 -4 10 -4 -2 -3 -10 1 -18 6 -18 13 0 6 -3 15 -7 19 -5 4 -8
12 -8 18 0 6 7 2 15 -8 8 -10 12 -22 10 -27z m-52 -16 c-13 -2 -33 -2 -45 0
-13 2 -3 4 22 4 25 0 35 -2 23 -4z"/>
<path d="M4953 2133 c9 -2 25 -2 35 0 9 3 1 5 -18 5 -19 0 -27 -2 -17 -5z"/>
<path d="M2286 2093 c-39 -76 -196 -159 -244 -129 -7 4 -12 5 -12 2 0 -10 79
-46 102 -46 30 0 114 49 156 90 32 33 41 70 23 99 -7 11 -13 7 -25 -16z"/>
<path d="M2038 2063 c-43 -29 -45 -34 -20 -49 15 -10 28 -6 70 20 28 17 50 36
48 41 -6 21 -61 14 -98 -12z"/>
<path d="M2584 2043 c16 -33 36 -52 36 -34 0 5 -11 23 -26 38 l-25 28 15 -32z"/>
<path d="M3621 2061 c-9 -6 -10 -11 -2 -15 6 -4 11 -24 10 -44 l-1 -37 -10 38
c-8 28 -15 37 -31 37 -27 0 -42 -10 -50 -33 -4 -10 -11 -15 -17 -12 -6 4 -8
11 -5 16 4 5 -2 9 -12 9 -15 0 -20 -9 -22 -42 -1 -23 -6 -47 -12 -54 -5 -6 -7
-19 -3 -28 5 -12 2 -15 -10 -10 -12 4 -15 2 -11 -9 7 -16 -58 -61 -86 -59 -8
0 -20 -8 -27 -18 -10 -17 -5 -18 101 -16 107 2 229 19 256 35 9 6 8 17 -5 50
-12 29 -19 39 -25 30 -5 -8 -8 0 -8 21 0 19 -4 61 -8 92 -6 45 -11 56 -22 49z
m-51 -98 c0 -20 -3 -24 -11 -16 -7 7 -9 19 -6 27 10 24 17 19 17 -11z m-78
-45 c-7 -7 -12 -8 -12 -2 0 14 12 26 19 19 2 -3 -1 -11 -7 -17z m108 -68 c0
-5 -4 -10 -10 -10 -5 0 -10 5 -10 10 0 6 5 10 10 10 6 0 10 -4 10 -10z"/>
<path d="M2546 2044 c-9 -24 -7 -54 4 -54 6 0 10 16 10 35 0 38 -4 44 -14 19z"/>
<path d="M1614 1975 c-16 -40 24 -85 74 -85 42 0 55 47 22 80 -24 24 -88 28
-96 5z"/>
<path d="M1818 1860 l3 -100 336 0 336 0 -7 38 c-3 20 -6 65 -6 100 l0 62 -40
0 c-33 0 -42 -4 -54 -28 -20 -38 -87 -98 -132 -117 -47 -19 -151 -19 -198 0
-45 19 -112 79 -132 117 -13 25 -20 28 -62 28 l-47 0 3 -100z"/>
<path d="M1442 1840 c0 -14 2 -19 5 -12 2 6 2 18 0 25 -3 6 -5 1 -5 -13z"/>
<path d="M4933 1823 c15 -2 37 -2 50 0 12 2 0 4 -28 4 -27 0 -38 -2 -22 -4z"/>
<path d="M2527 1726 l5 -26 -378 -3 -379 -2 380 0 c362 0 380 1 383 19 2 10 0
22 -6 28 -6 6 -8 0 -5 -16z"/>
</g>
</svg>
